<svg xmlns="http://www.w3.org/2000/svg"
    viewBox="0 0 2500 2500">
    <g fill="rgb(237,92,77)">
        <g>
            <path id="pVOY8n8N1"
                d="M684 2167 c-174 -128 -305 -317 -370 -532 -26 -84 -28 -102 -28 -275 0 -173 1 -191 27 -275 116 -381 414 -646 807 -716 133 -24 201 -24 331 0 227 41 412 142 572 311 119 126 191 259 239 441 32 121 32 358 1 476 -48 180 -126 323 -248 452 -81 85 -184 161 -219 161 l-26 0 0 -486 c0 -425 -2 -485 -15 -480 -8 3 -116 86 -239 186 -124 99 -227 180 -231 180 -3 0 -110 -83 -238 -185 -127 -102 -235 -185 -239 -185 -5 0 -8 218 -8 485 l0 485 -29 0 c-18 0 -50 -16 -87 -43z m667 -822 c86 -104 139 -233 139 -339 0 -66 -32 -169 -74 -239 -42 -70 -114 -157 -128 -157 -17 0 -87 78 -130 144 -79 123 -99 270 -54 397 25 71 112 207 154 239 30 24 40 19 93 -45z"></path>
            <path id="pLfCROv6g"
                d="M1256 1273 c-39 -41 -60 -104 -53 -159 5 -51 51 -127 80 -132 21 -4 72 74 81 124 10 49 -17 133 -53 168 l-29 28 -26 -29z"></path>
            <path id="p1DlQfnVIs"
                d="M1017 2203 c-9 -18 -8 -531 1 -537 5 -3 67 41 138 98 l128 104 127 -104 c70 -57 130 -104 133 -104 4 0 5 123 4 273 l-3 272 -262 3 c-144 1 -263 -1 -266 -5z"></path>
        </g>
    </g>
</svg>